# xmcd
#
# Track frame offsets: 
#        150
#        24122
#        52831
#        82481
#        131697
#        152732
#        183714
#
# Disc length: 3273 seconds
#
# Revision: 0
# Processed by: cddbd v1.5.2PL0 Copyright (c) Steve Scherf et al.
# Submitted via: ExactAudioCopy v1.3
#
DISCID=560cc707
DTITLE=Ten Years After - Live From London
DYEAR=2016
DGENRE=Blues Rock
TTITLE0=Love Like A Man
TTITLE1=I May Be Wrong (But Won't Be Wrong Always)
TTITLE2=Good Morning Little School Girl
TTITLE3=Help Me
TTITLE4=Woodchoppers Ball
TTITLE5=Slow Blues
TTITLE6=Goin' Home
EXTD=
EXTT0=
EXTT1=
EXTT2=
EXTT3=
EXTT4=
EXTT5=
EXTT6=
PLAYORDER=
